<?xml version="1.0" encoding="UTF-8" standalone="no"?>
<!-- Created with Inkscape (http://www.inkscape.org/) -->

<svg
   version="1.1"
   id="svg1"
   width="91.920395"
   height="74.480682"
   viewBox="0 0 91.920392 74.480682"
   xmlns="http://www.w3.org/2000/svg"
   xmlns:svg="http://www.w3.org/2000/svg">
  <defs
     id="defs1" />
  <g
     id="g1"
     transform="translate(-1322.6481,-892.27343)">
    <g
       id="g2"
       transform="matrix(0.08189116,0,0,0.08189116,1152.2637,885.55705)">
      <path
         style="fill:#fe8f1c;fill-opacity:1"
         d="m 2639.607,170.98994 c 9.5336,-3.85251 36.888,-15.73165 65.5009,-28.4449 4.2167,-1.87356 7.6667,-3.81339 7.6667,-4.31076 0,-0.49736 -2.25,-1.98586 -5,-3.30778 -7.7457,-3.72335 -72.3366,-32.09594 -78.3637,-34.42252 -6.1998,-2.393284 -2.7131,-3.579832 -47.9697,16.32419 -36.3318,15.97891 -44.6666,19.93361 -44.6666,21.19346 0,0.59214 2.25,2.00763 5,3.14554 2.75,1.1379 14.9,6.39826 27,11.68968 31.4003,13.7316 53.5511,22.53861 56.8324,22.59619 1.5578,0.0273 7.8578,-1.98106 14,-4.4631 z"
         id="path39" />
      <path
         style="fill:#fe8f1c;fill-opacity:1"
         d="m 2763.2562,212.97243 c 32.1522,-13.86138 56.185,-24.99227 56.185,-26.02229 0,-1.07799 -7.8317,-4.86481 -28.6666,-13.86092 -10.2667,-4.43295 -27.0591,-11.71232 -37.3166,-16.17638 l -18.6498,-8.11647 -43.0053,18.35318 c -23.6529,10.09426 -43.0105,18.68364 -43.0168,19.08751 -0.017,1.09502 9.0069,5.37753 47.9885,22.77362 19.4333,8.67241 36.1501,15.78093 37.1483,15.79671 0.9982,0.0158 14.1982,-5.30995 29.3333,-11.83496 z"
         id="path38" />
      <path
         style="fill:#000000;fill-opacity:1"
         d="m 2631.7389,271.54631 c 3.1363,-1.44271 15.6023,-6.89082 27.7023,-12.10693 35.0584,-15.11306 52,-22.92212 52,-23.96883 0,-0.53501 -3.15,-2.32564 -7,-3.97916 -3.85,-1.65353 -10,-4.36378 -13.6666,-6.02278 -16.3999,-7.42019 -59.8237,-26.4627 -118.6667,-52.03851 -7.3333,-3.1874 -22.9043,-10.02499 -34.6023,-15.19465 -11.6979,-5.16965 -21.7189,-9.39936 -22.2689,-9.39936 -0.55,0 -10.1789,3.95038 -21.3977,8.77864 -11.2188,4.82826 -25.1978,10.84154 -31.0644,13.36284 -5.8667,2.52131 -16.0425,7.14755 -22.6128,10.28053 l -11.9462,5.69634 31.2795,14.12828 c 17.2037,7.77055 44.7795,20.16798 61.2795,27.54984 16.5,7.38186 45.9,20.58962 65.3333,29.35058 19.4333,8.76096 36.3673,15.9869 37.631,16.05765 1.2637,0.0707 4.8637,-1.05177 8,-2.49448 z"
         id="path37" />
      <path
         style="fill:#fe8f1c;fill-opacity:1"
         d="m 2676.7746,433.0511 39.3333,-16.98351 0.3543,-36.88237 c 0.3358,-34.95038 0.2138,-37.11286 -2.3283,-41.28242 -3.1364,-5.14425 -3.4077,-10.12962 -0.8767,-16.10954 3.0627,-7.23609 6.2015,-8.96915 19.7099,-10.88275 13.5619,-1.92117 16.8002,-3.17627 69.1408,-26.79794 l 30,-13.53919 0.3562,-33.53532 c 0.1985,-18.67871 -0.1633,-33.53531 -0.8166,-33.53531 -1.7738,0 -15.7259,5.98454 -57.5396,24.68063 -20.9,9.34499 -49.1,21.89925 -62.6667,27.89836 -13.5666,5.99911 -36.5166,16.2262 -51,22.72687 l -26.3333,11.81939 v 44.77071 c 0,51.80937 1.4006,114.8014 2.5446,114.7033 0.4323,-0.0371 18.486,-7.70998 40.1194,-17.05091 z"
         id="path36" />
      <path
         style="fill:#fe8f1c;fill-opacity:1"
         d="m 2680.7746,531.53404 c 15.0333,-6.78185 51.9333,-23.29939 82,-36.70564 30.0666,-13.40624 58.1167,-26.00913 62.3333,-28.00641 l 7.6667,-3.63143 v -86.51057 c 0,-47.58082 -0.2431,-86.51058 -0.5402,-86.51058 -1.2825,0 -54.9446,23.58591 -70.238,30.87146 -15.9596,7.60293 -16.9773,8.32957 -20.8593,14.89405 l -4.081,6.90116 -0.878,37.87831 c -0.9321,40.2166 -1.5961,44.46013 -7.5549,48.28645 -3.4355,2.206 -34.6585,16.12718 -71.5153,31.88606 l -23,9.83412 v 28.18603 c 0,15.50232 0.385,33.60915 0.8554,40.2374 l 0.8555,12.05137 8.8112,-3.66556 c 4.8462,-2.01606 21.1112,-9.21436 36.1446,-15.99622 z"
         id="path35" />
      <path
         style="fill:#fe8f1c;fill-opacity:1"
         d="m 2615.6412,537.50275 c 0.11,-7.7 0.26,-14.70421 0.3334,-15.56491 0.073,-0.8607 -8.5667,-5.40535 -19.2,-10.09922 -10.6334,-4.69388 -34.0334,-15.03167 -52,-22.97288 -59.4672,-26.28427 -80.5835,-35.5153 -88.1928,-38.55358 -13.1042,-5.23229 -13.7316,-6.51219 -14.2697,-29.11027 -0.4661,-19.57159 0.3334,-31.58765 2.3151,-34.79403 1.5497,-2.5075 9.2598,-2.36411 11.8442,0.22029 1.8134,1.81342 2.2986,5.97983 2.7467,23.58731 l 0.5442,21.38485 3.7143,1.92073 c 2.0429,1.05641 26.4206,11.8904 54.1728,24.07554 27.7522,12.18515 54.0585,23.79499 58.4585,25.79965 17.9496,8.17793 38.0966,16.45433 38.6667,15.88425 0.3341,-0.3341 0.6481,-47.27987 0.6977,-104.32391 l 0.09,-103.71645 -8.394,-3.99892 c -18.1725,-8.65745 -109.6887,-49.32652 -135.9496,-60.41488 -10.1118,-4.26959 -10.2306,-4.28567 -10.9818,-1.48659 -0.4177,1.55632 -0.7676,29.58273 -0.7777,62.28091 l -0.018,59.45123 33,14.78264 c 42.0942,18.85646 42.408,18.98016 48.1629,18.98901 19.488,0.03 29.751,14.67875 18.3038,26.12589 -3.5066,3.50666 -5.6402,4.53334 -9.421,4.53334 -6.1706,0 -9.4261,-1.68956 -15.7827,-8.19096 -4.5593,-4.66313 -16.754,-11.31389 -38.263,-20.8678 -34.719,-15.42165 -46.4702,-20.90255 -49.6116,-23.1394 l -3.6988,-2.6338 -0.3448,-72.08717 -0.3448,-72.08716 -11.174,-4.49686 c -6.1457,-2.47327 -11.6957,-4.49685 -12.3333,-4.49685 -1.3325,0 -1.353,250.91142 -0.021,256 0.6339,2.42172 3.2412,4.50597 9.5337,7.62115 9.4564,4.68147 124.9499,56.87297 154.6612,69.89137 3.3,1.44594 11.7,5.24369 18.6667,8.43945 6.9667,3.19576 13.1167,5.86392 13.6667,5.92925 0.55,0.0653 1.09,-6.18122 1.2,-13.88122 z"
         id="path34" />
      <path
         style="fill:#fe8f1c;fill-opacity:1"
         d="m 2549.949,662.16941 0.337,-14.66666 h -50.7557 -50.7557 v 14.66666 14.66667 h 50.4187 50.4186 z"
         id="path33" />
      <path
         style="fill:#fe8f1c;fill-opacity:1"
         d="m 2532.581,720.83608 -0.3623,-14.66667 h -41.7221 -41.722 v 14.66667 14.66667 h 42.0843 42.0844 z"
         id="path32" />
      <path
         style="fill:#000000"
         d="m 2994.7746,774.85958 c 9.5333,-13.51671 17.7768,-24.45155 18.3188,-24.29966 0.542,0.15189 2.942,3.081 5.3333,6.50913 15.9157,22.81625 29.6625,41.43268 30.9633,41.93184 0.8391,0.322 9.1742,0.41664 18.5225,0.21032 l 16.997,-0.37513 -26.7612,-37.64932 -26.7611,-37.64932 19.5915,-27.68401 c 10.7754,-15.22621 22.3913,-31.58402 25.8132,-36.35068 3.4219,-4.76667 6.6533,-9.41667 7.1809,-10.33334 0.7482,-1.30016 -3.0897,-1.65554 -17.4528,-1.61606 l -18.4121,0.0506 -3.8964,5.61607 c -18.5899,26.79433 -30.6824,43.60631 -31.3293,43.55675 -0.4259,-0.0326 -8.5743,-11.12035 -18.1076,-24.63939 l -17.3333,-24.58008 -18.2934,-0.0273 -18.2933,-0.0273 19.0519,27 c 10.4785,14.85 22.48,31.76661 26.6699,37.59247 4.6195,6.42329 7.3102,11.39442 6.8361,12.62994 -0.43,1.1206 -2.5802,4.45399 -4.7781,7.40752 -5.1901,6.97438 -24.4324,33.98424 -30.9045,43.37994 -2.7746,4.0279 -7.7599,11.07346 -11.0784,15.65679 l -6.0336,8.33334 18.4117,-0.0337 18.4117,-0.0337 z"
         id="path31" />
      <path
         style="fill:#000000"
         d="m 2668.7746,689.50275 v -18 h 6.8453 c 10.0014,0 16.8765,2.47985 20.6724,7.4566 6.622,8.68191 4.6698,19.24745 -4.7149,25.51682 -3.6095,2.41129 -6.3878,3.02658 -13.6667,3.02658 h -9.1361 z"
         id="path30" />
      <path
         style="fill:#000000"
         d="m 2706.5604,796.80529 c 11.0809,-3.42256 21.7771,-12.76396 27.1552,-23.71576 3.2407,-6.59922 3.7257,-9.14881 3.7257,-19.58678 0,-10.35366 -0.4956,-13.0061 -3.6123,-19.33334 -1.9868,-4.03333 -5.7952,-9.57309 -8.4633,-12.31057 l -4.851,-4.97725 3.1299,-6.35609 c 2.6187,-5.31786 3.13,-8.4251 3.13,-19.02275 0,-10.5422 -0.5169,-13.71612 -3.082,-18.92375 -4.2876,-8.70459 -12.4779,-16.70211 -21.3775,-20.87444 -7.2372,-3.39293 -8.5999,-3.55168 -33.8739,-3.9462 l -26.3333,-0.41104 v 44.74438 44.74438 l 27.6667,0.005 c 25.0711,0.005 28.0664,0.24872 31.9275,2.60302 8.6047,5.24658 11.3531,14.02554 7.2763,23.24182 -3.3094,7.48148 -10.332,11.48351 -20.1507,11.48351 h -6.7198 v 12.66665 12.66667 h 7.8596 c 4.3227,0 11.7895,-1.21386 16.5929,-2.69746 z"
         id="path29" />
      <path
         style="fill:#fe8f1c;fill-opacity:1"
         d="m 2548.7746,784.83608 v -14.66667 h -50 -50 v 14.66667 14.66667 h 50 50 z"
         id="path28" />
      <path
         style="fill:#fe8f1c;fill-opacity:1"
         d="m 2334.1079,767.50275 v -32 h 28.6667 28.6666 v 32 32 h 15.2933 15.2932 l 0.058,-76 0.058,-76 h -15.3515 -15.3516 v 29.33333 29.33333 h -28.6666 -28.6667 v -29.33333 -29.33333 h -14.6667 -14.6666 v 76 76 h 14.6666 14.6667 z"
         id="path27" />
      <path
         style="fill:#fe8f1c;fill-opacity:1"
         d="m 2236.7461,738.50275 -0.079,-61 20.7206,-0.36719 20.7206,-0.36719 v -14.63281 -14.63281 h -57.3333 -57.3334 v 14.66666 14.66667 h 21.3334 21.3333 v 61.33333 61.33334 h 15.3588 15.3587 z"
         id="path26" />
      <path
         style="fill:#000000"
         d="m 2830.6951,770.33136 c -13.1457,-3.39848 -26.0381,-14.0376 -32.189,-26.56317 -3.2914,-6.70245 -3.7315,-9.0929 -3.7315,-20.26544 0,-10.89975 0.4901,-13.71194 3.5135,-20.16002 4.7567,-10.14459 11.4625,-17.21878 21.462,-22.64118 7.9953,-4.33555 8.9651,-4.53214 22.3578,-4.53214 12.209,0 14.7676,0.40841 20,3.19238 9.3045,4.95057 14.0345,9.02657 19.2019,16.54677 21.3584,31.08326 0.3711,73.52598 -37.129,75.08611 -5.1734,0.21523 -11.242,-0.0833 -13.4857,-0.66331 z"
         id="path25" />
      <path
         style="fill:#280b0b;fill-opacity:1"
         d="m 2858.4355,800.21709 c 42.3169,-8.96752 69.582,-51.19224 60.471,-93.64956 -6.0731,-28.30113 -29.1763,-52.30976 -57.412,-59.66215 -11.5828,-3.01609 -30.3679,-2.69781 -41.5795,0.70448 -24.3995,7.40432 -44.5416,26.62229 -52.7248,50.30563 -4.4228,12.80038 -4.4347,36.88508 -0.025,50.04461 12.8262,38.27295 51.8429,60.61213 91.2699,52.25699 z"
         id="path24" />
      <path
         style="fill:#fe8f1c;fill-opacity:1"
         d="m 2855.4413,836.16941 v -6 h -22 -22.0001 v 6 6 h 22.0001 22 z"
         id="path23" />
      <path
         style="fill:#fe8f1c;fill-opacity:1"
         d="m 2648.7746,836.16941 v -6 h -22 -22 v 6 6 h 22 22 z"
         id="path22" />
      <path
         style="fill:#000000"
         d="m 2847.6079,866.16941 c 0.092,-1.46666 0.1667,-3.56666 0.1667,-4.66666 0,-6.19169 0.5857,-6 -18.3333,-6 h -18.0001 v 6.66666 6.66667 h 18.0001 c 17.0555,0 18.0087,-0.13992 18.1666,-2.66667 z"
         id="path21" />
      <path
         style="fill:#fe8f1c;fill-opacity:1"
         d="m 2640.7746,862.16941 v -6.66666 h -18 -18 v 6.66666 6.66667 h 18 18 z"
         id="path20" />
      <path
         style="fill:#fe8f1c;fill-opacity:1"
         d="m 3044.8422,877.16941 0.068,-19.66666 18.9324,19.67585 c 10.4128,10.82172 19.6824,19.67172 20.5991,19.66667 1.2886,-0.007 1.6666,-7.56965 1.6666,-33.34252 v -33.33334 h -6.6666 -6.6667 l -0.037,19 -0.037,19 -18.34,-19 c -10.087,-10.45 -19.3705,-19 -20.63,-19 -2.1034,0 -2.29,2.71624 -2.29,33.33334 v 33.33333 h 6.6666 6.6667 z"
         id="path19" />
      <path
         style="fill:#fe8f1c;fill-opacity:1"
         d="m 2939.4413,863.50275 v -33.33334 h -6.6667 -6.6667 v 32.44445 c 0,17.84444 0.4,32.84444 0.8889,33.33333 0.4889,0.48889 3.4889,0.88889 6.6667,0.88889 h 5.7778 z"
         id="path18" />
      <path
         style="fill:#fe8f1c;fill-opacity:1"
         d="m 2855.4413,890.16941 v -6.66666 h -22 -22.0001 v 6.66666 6.66667 h 22.0001 22 z"
         id="path17" />
      <path
         style="fill:#000000"
         d="m 2760.7746,862.65036 v -20.85239 l 6.8148,0.80711 c 11.3305,1.34194 19.8518,10.11307 19.8518,20.43388 0,10.57821 -10.2323,20.46379 -21.1815,20.46379 h -5.4851 z"
         id="path16" />
      <path
         style="fill:#fe8f1c;fill-opacity:1"
         d="m 2776.612,894.76083 c 28.0432,-8.32793 31.4704,-48.06475 5.2714,-61.12024 -6.0796,-3.02962 -8.6285,-3.47118 -20.0373,-3.47118 h -13.0715 v 33.33334 33.33333 h 10.4247 c 5.7335,0 13.5693,-0.93386 17.4127,-2.07525 z"
         id="path15" />
      <path
         style="fill:#fe8f1c;fill-opacity:1"
         d="m 2674.1079,869.50275 v -27.33334 h 7.0367 c 7.9793,0 12.9633,2.67998 12.9633,6.97062 0,4.09633 -3.8385,7.69605 -8.2066,7.69605 -3.6344,0 -3.794,0.26547 -3.8088,6.33333 -0.012,4.7256 1.5669,9.80265 6.2179,20 l 6.2334,13.66667 h 6.5386 c 7.7133,0 7.7337,0.49431 -0.7113,-17.19435 l -5.3475,-11.20081 3.5795,-2.60749 c 4.9771,-3.62558 7.5048,-9.12596 7.5048,-16.33068 0,-7.64633 -2.8624,-13.34534 -8.398,-16.72065 -3.6189,-2.20655 -6.7548,-2.60348 -20.602,-2.6077 l -16.3333,-0.005 v 33.33335 33.33333 h 6.6666 6.6667 z"
         id="path14" />
      <path
         style="fill:#fe8f1c;fill-opacity:1"
         d="m 2648.7746,890.16941 v -6.66666 h -22 -22 v 6.66666 6.66667 h 22 22 z"
         id="path13" />
      <path
         style="fill:#fe8f1c;fill-opacity:1"
         d="m 2548.7746,877.50275 c 0,-10.82921 0.5376,-19.33334 1.2223,-19.33334 0.6722,0 9.4735,8.7 19.5583,19.33334 10.0848,10.63333 19.1348,19.33333 20.111,19.33333 1.4305,0 1.775,-6.47027 1.775,-33.33333 v -33.33334 h -6.6666 -6.6667 l -0.022,19 -0.022,19 -18.3111,-19.01727 c -10.0711,-10.4595 -19.3611,-19.0095 -20.6445,-19 -2.1595,0.016 -2.3333,2.50004 -2.3333,33.35061 v 33.33333 h 6 6 z"
         id="path12" />
      <path
         style="fill:#fe8f1c;fill-opacity:1"
         d="m 2523.4412,863.50275 v -33.33334 l -6.3333,-8.4e-4 -6.3333,-8.4e-4 0.3335,29.66751 c 0.1834,16.31713 0.3334,31.31751 0.3333,33.33417 -1e-4,3.45682 0.3432,3.66667 5.9998,3.66667 h 6 z"
         id="path11" />
      <path
         style="fill:#fe8f1c;fill-opacity:1"
         d="m 2455.4432,876.85027 c 5.4989,-10.99219 10.4556,-19.99219 11.0149,-20 0.5592,-0.008 2.4372,3.13581 4.1732,6.98581 1.7361,3.85 5.9178,12.85 9.2927,20 l 6.1362,13 h 7.225 7.225 l -6.5345,-13.34154 c -3.5939,-7.33785 -6.5345,-13.55563 -6.5345,-13.81728 0,-0.26166 -4.2201,-9.29807 -9.3781,-20.08093 -6.7561,-14.12373 -9.9551,-19.48706 -11.4414,-19.18272 -1.1814,0.24189 -9.1372,14.38569 -18.6127,33.08914 -9.1021,17.96666 -16.5535,32.81666 -16.5586,33 -0.01,0.18333 3.1417,0.33333 6.9928,0.33333 h 7.002 z"
         id="path10" />
      <path
         style="fill:#fe8f1c;fill-opacity:1"
         d="m 2403.4412,869.50275 v -27.33334 h 9.3334 9.3333 v -6 -6 h -25.3333 -25.3334 v 6 6 h 9.3334 9.3333 v 27.33334 27.33333 h 6.6667 6.6666 z"
         id="path9" />
      <path
         style="fill:#fe8f1c;fill-opacity:1"
         d="m 2318.1079,877.50275 c 0,-10.63334 0.3326,-19.33334 0.7391,-19.33334 0.4066,0 9.1758,8.7 19.4873,19.33334 10.3115,10.63333 19.2789,19.33333 19.9275,19.33333 0.6522,0 1.1794,-14.90029 1.1794,-33.33333 v -33.33334 h -6 -6 v 18.98276 18.98275 l -19.0166,-18.98275 c -10.4592,-10.44052 -19.7592,-18.98276 -20.6667,-18.98276 -1.2671,0 -1.65,7.73529 -1.65,33.33334 v 33.33333 h 6 6 z"
         id="path8" />
      <path
         style="fill:#fe8f1c;fill-opacity:1"
         d="m 3000.9415,893.2832 c 10.4398,-5.68204 16.9967,-17.47919 17.1079,-30.78045 l 0.059,-7 h -13.3333 -13.3333 v 6.66666 6.66667 h 7.3333 c 4.0333,0 7.3333,0.37918 7.3333,0.84262 0,2.75651 -5.9867,9.70022 -10.5976,12.2917 -9.6719,5.4359 -19.9308,3.50199 -27.1905,-5.12568 -8.563,-10.17659 -4.983,-26.41587 7.2141,-32.7232 4.4398,-2.29592 14.924,-2.57219 18.8044,-0.4955 2.3015,1.23175 3.4259,0.774 7.284,-2.96537 l 4.5623,-4.42196 -3.0384,-2.29289 c -6.6752,-5.03753 -19.4866,-6.38518 -29.2088,-3.07252 -19.56,6.66478 -28.8817,30.98122 -18.8006,49.04309 4.0289,7.21844 12.9609,14.46779 20.7907,16.87417 6.4589,1.985 17.8599,0.3864 25.014,-3.50734 z"
         id="path7" />
      <path
         style="fill:#fe8f1c;fill-opacity:1"
         d="m 2902.6416,896.31089 c 5.2953,-2.21252 10.8176,-9.1254 12.0919,-15.13686 2.0227,-9.54214 -6.2941,-20.6134 -18.2771,-24.33008 -3.125,-0.96926 -7.0318,-2.58139 -8.6818,-3.58249 -3.2617,-1.97893 -3.9881,-6.904 -1.4,-9.49205 2.4868,-2.48683 11.61,-1.89373 16.3991,1.06613 l 4.3139,2.66613 3.4526,-5.21728 c 3.9307,-5.9396 3.6916,-6.37763 -5.8424,-10.70267 -7.4196,-3.3659 -14.9735,-3.42095 -22.1526,-0.16142 -9.9016,4.49567 -13.3367,13.98367 -8.7867,24.26971 2.0227,4.5726 3.9203,6.51293 8.4777,8.66851 19.2597,9.10953 19.1963,9.06867 19.6108,12.64327 0.9494,8.18789 -11.0411,10.76989 -20.429,4.39912 l -5.062,-3.43517 -4.6332,4.63323 -4.6332,4.63322 5.4461,3.60404 c 10.7571,7.11877 21.4969,9.07175 30.1059,5.47466 z"
         id="path6" />
      <path
         style="fill:#000000"
         d="m 2249.4412,882.25085 c -10.8984,-5.58456 -15.0888,-17.65859 -9.7421,-28.07067 4.1831,-8.14626 10.2816,-12.01213 18.9393,-12.00578 12.5879,0.009 20.7886,8.20993 20.7978,20.79784 0.012,16.0291 -16.1122,26.39243 -29.995,19.27861 z"
         id="path5" />
      <path
         style="fill:#fe8f1c;fill-opacity:1"
         d="m 2268.2575,896.19945 c 20.4744,-6.08024 30.6496,-29.98653 20.7934,-48.85341 -12.3531,-23.64649 -45.235,-25.03208 -59.5645,-2.50996 -8.1506,12.81038 -6.9788,28.64886 3.0085,40.66667 4.4946,5.40838 7.741,7.54392 15.613,10.2705 8.25,2.85751 11.7156,2.93082 20.1496,0.4262 z"
         id="path4" />
      <path
         style="fill:#fe8f1c;fill-opacity:1"
         d="m 2212.4036,894.93855 c 7.856,-4.25196 7.8176,-4.16152 3.9317,-9.25612 l -3.5849,-4.70016 -4.9477,2.06727 c -13.6844,5.7177 -28.1539,-3.39365 -29.366,-18.4915 -0.6553,-8.16335 2.5112,-14.15288 10.2334,-19.3569 4.9706,-3.34964 13.7413,-4.0513 19.2525,-1.54021 2.9169,1.32901 3.714,1.00215 7.3159,-3 4.6465,-5.16266 4.1376,-6.17873 -4.8243,-9.63133 -18.2052,-7.01372 -39.5762,3.71154 -45.0732,22.62051 -6.7559,23.23945 11.1153,45.60947 35.0626,43.88924 4.5627,-0.32775 9.9627,-1.49812 12,-2.6008 z"
         id="path3" />
      <path
         style="fill:#fe8f1c;fill-opacity:1"
         d="m 3170.6653,1006.4444 c 4.401,-1.5268 7.9088,-3.96 10.6667,-7.39869 l 4.1093,-5.1237 0.3669,-328.20963 c 0.2018,-180.5153 0.043,-329.54863 -0.3526,-331.18518 -1.0546,-4.36132 -8.6507,-12.4812 -13.6173,-14.55639 -3.5385,-1.47845 -32.5255,-1.8014 -161.6875,-1.8014 h -157.3762 v 7.33334 7.33333 l 157,0.0424 c 128.4342,0.0347 157.4245,0.36468 159.3333,1.81366 2.2111,1.67843 2.3334,18.89573 2.3334,328.54866 v 326.7774 l -2.9634,2.07561 c -2.6702,1.8703 -56.4494,2.0756 -543.7033,2.0756 -487.254,0 -541.0331,-0.2053 -543.7034,-2.0756 l -2.9633,-2.07561 V 663.52238 c 0,-295.03661 0.2019,-326.69771 2.0952,-328.59106 1.8811,-1.88107 18.1674,-2.09524 159.3334,-2.09524 h 157.2381 v -7.33333 -7.33334 h -158.1518 c -158.0031,0 -158.1565,0.003 -163.1151,2.78952 -2.7298,1.53424 -6.5651,5.25981 -8.5228,8.27905 l -3.5594,5.48953 0.3412,329.59725 0.3412,329.59725 4.1092,5.1237 c 2.7579,3.43869 6.2658,5.87189 10.6667,7.39869 6.1391,2.1298 40.9617,2.275 545.8908,2.275 504.929,0 539.7516,-0.1452 545.8907,-2.275 z"
         id="path2" />
    </g>
  </g>
</svg>
